<?xml version="1.0" encoding="UTF-8"?>
<svg version="1.1" xmlns="http://www.w3.org/2000/svg" width="521" height="332">
<path d="M0 0 C4.17157236 2.72674124 5.73591173 4.86043012 7.0546875 9.6328125 C7.37663086 10.79200195 7.69857422 11.95119141 8.03027344 13.14550781 C9.84641399 20.36434646 11.52006813 27.60650274 13.125 34.875 C13.508932 36.5926697 13.89313455 38.31027894 14.27758789 40.02783203 C16.50113734 50.00401497 18.6421575 59.99631191 20.73828125 70 C20.96441101 71.07613556 21.19054077 72.15227112 21.42352295 73.26101685 C22.5346738 78.55193334 23.63725414 83.84437793 24.72509766 89.14013672 C25.12767428 91.07004027 25.53049389 92.99989316 25.93359375 94.9296875 C26.20336784 96.26592163 26.20336784 96.26592163 26.47859192 97.62915039 C26.64993149 98.44230713 26.82127106 99.25546387 26.99780273 100.09326172 C27.14386459 100.80312225 27.28992645 101.51298279 27.44041443 102.24435425 C27.92599654 104.2319811 27.92599654 104.2319811 30 106 C30.67696209 111.69907618 30.67872105 117.15775716 28.6875 122.5625 C21.07703313 129.46501646 9.70803435 130.0152603 -0.0625 131.125 C-1.34060547 131.28097656 -2.61871094 131.43695313 -3.93554688 131.59765625 C-7.25901395 131.99919346 -10.58338219 132.38587839 -13.90975952 132.76208496 C-16.0528303 133.00601324 -18.19498666 133.25709563 -20.3371582 133.50878906 C-31.22890372 134.77314323 -42.12722821 135.70621044 -53.0625 136.5 C-54.33938187 136.59421738 -54.33938187 136.59421738 -55.64205933 136.69033813 C-67.94411232 137.5979944 -80.25006684 138.43371702 -92.5625 139.1875 C-93.25264191 139.2302002 -93.94278381 139.27290039 -94.65383911 139.31689453 C-96.6036984 139.436606 -98.55379882 139.55236992 -100.50390625 139.66796875 C-101.59517822 139.73266357 -102.6864502 139.7973584 -103.81079102 139.86401367 C-107.20441286 140.00871607 -110.60329454 140 -114 140 C-114 165.41 -114 190.82 -114 217 C-121.59 217 -129.18 217 -137 217 C-137.33 215.68 -137.66 214.36 -138 213 C-138.928125 213.639375 -139.85625 214.27875 -140.8125 214.9375 C-147.33350361 219.15697292 -154.50439826 218.55494027 -162 218 C-168.03646048 216.40666579 -171.40519557 212.94285609 -175 208 C-175.72703125 208.59748047 -175.72703125 208.59748047 -176.46875 209.20703125 C-186.95142791 217.4923786 -197.80350775 218.84361138 -211 218 C-217.79572668 216.904954 -223.55690778 215.38102545 -229 211 C-229.94875 210.2575 -230.8975 209.515 -231.875 208.75 C-232.57625 208.1725 -233.2775 207.595 -234 207 C-234.42410156 207.47050781 -234.84820312 207.94101563 -235.28515625 208.42578125 C-240.93191241 214.4200301 -246.40167328 217.30195926 -254.66015625 218.0078125 C-260.28744799 217.98902355 -265.00453726 216.49773137 -270 214 C-270.33 221.92 -270.66 229.84 -271 238 C-279.25 238 -287.5 238 -296 238 C-296 210.61 -296 183.22 -296 155 C-288.41 155 -280.82 155 -273 155 C-272.67 156.65 -272.34 158.3 -272 160 C-271.278125 159.38125 -270.55625 158.7625 -269.8125 158.125 C-263.37238279 153.25913366 -256.83748172 153.12613444 -249 154 C-241.82385052 156.16930834 -237.76015548 159.60773568 -234 166 C-231.60788101 164.93683601 -229.88805433 163.89823121 -227.9375 162.125 C-217.33899238 154.45799449 -204.33172539 154.70968735 -191.8359375 156.4375 C-185.5986701 157.98233403 -181.44385458 161.46925441 -177 166 C-176.34 165.278125 -175.68 164.55625 -175 163.8125 C-169.2086641 158.00461743 -163.02039525 154.86546863 -154.8125 154.75 C-149.13583836 154.77539893 -145.11152596 155.59457602 -140 158 C-139.67 152.39 -139.34 146.78 -139 141 C-141.38210693 141.16226074 -143.76421387 141.32452148 -146.21850586 141.49169922 C-159.30256135 142.27070751 -172.40200082 142.14430404 -185.50390625 142.1328125 C-188.23998551 142.13303645 -190.97606399 142.13445878 -193.71214294 142.13571167 C-199.41804497 142.1375179 -205.12393395 142.13516782 -210.82983398 142.13037109 C-217.37821516 142.12492887 -223.92656518 142.12669715 -230.4749456 142.1321975 C-236.15111381 142.13676999 -241.82727277 142.13735922 -247.50344223 142.13475883 C-250.87006099 142.13321893 -254.23665375 142.13334508 -257.60327339 142.13629532 C-270.23457565 142.14493934 -282.79843876 142.09838339 -295.40144348 141.21569824 C-299.89906805 140.94610967 -304.36792017 140.96269292 -308.87164307 141.00067139 C-314.39894779 140.99948515 -319.91084296 140.6977529 -325.4296875 140.4140625 C-326.66308868 140.35221771 -327.89648987 140.29037292 -329.16726685 140.22665405 C-331.75727008 140.09554342 -334.34718505 139.96267825 -336.93701172 139.828125 C-340.85743308 139.62590612 -344.77826595 139.433789 -348.69921875 139.2421875 C-351.23440663 139.1125965 -353.76956404 138.98240772 -356.3046875 138.8515625 C-357.45516571 138.79626373 -358.60564392 138.74096497 -359.79098511 138.68399048 C-368.33509057 138.22617572 -376.44750649 137.14033247 -385 136 C-385 162.4 -385 188.8 -385 216 C-392.92 216 -400.84 216 -409 216 C-409 188.94 -409 161.88 -409 134 C-416.59 133.34 -424.18 132.68 -432 132 C-436.85537021 131.40747211 -441.66867205 130.79159131 -446.5 130.0625 C-448.18802734 129.82756836 -448.18802734 129.82756836 -449.91015625 129.58789062 C-459.30073405 128.1964886 -465.82849494 126.51234597 -471.75 118.6875 C-473.35469058 115.23741525 -473.34255735 112.76813088 -473 109 C-472 106.5625 -472 106.5625 -471 105 C-470.34 105 -469.68 105 -469 105 C-469 104.34 -469 103.68 -469 103 C-465.69477196 100.79651464 -464.72339001 100.75436615 -460.88598633 100.77294922 C-459.84513382 100.77310028 -458.80428131 100.77325134 -457.73188782 100.77340698 C-456.60993515 100.78372955 -455.48798248 100.79405212 -454.33203125 100.8046875 C-453.18208176 100.8075174 -452.03213226 100.81034729 -450.84733582 100.81326294 C-447.16895204 100.82447167 -443.49081038 100.84957776 -439.8125 100.875 C-437.32096705 100.88502889 -434.8294303 100.8941549 -432.33789062 100.90234375 C-426.22517759 100.92441327 -420.11260609 100.95789776 -414 101 C-414.32355469 100.41863281 -414.64710938 99.83726563 -414.98046875 99.23828125 C-416.79412302 95.25658049 -416.66031364 91.02674304 -415.32421875 86.92578125 C-414.60986409 85.25669666 -413.8119293 83.62385861 -413 82 C-412.24460937 82.19980469 -411.48921875 82.39960937 -410.7109375 82.60546875 C-400.17104545 84.44439605 -393.67662725 81.00280585 -384.64208984 75.7878418 C-377.77329766 71.91702057 -377.77329766 71.91702057 -373.578125 72.3671875 C-370.66440493 74.21254355 -369.1792315 75.83206665 -367.25 78.6875 C-366.25628671 80.08992526 -366.25628671 80.08992526 -365.2424984 81.52068233 C-363.63461005 83.883968 -362.42612905 86.20647039 -361.30872536 88.83461094 C-359.24397203 93.26928736 -357.00362584 97.07186487 -353 100 C-344.83865803 102.86792552 -335.59221245 101.95170735 -327.07958984 101.79467773 C-324.41779509 101.80031272 -321.75664061 101.81188729 -319.0949707 101.83087158 C-313.37569111 101.85987698 -307.65877575 101.83436494 -301.93980026 101.77114677 C-293.6717321 101.67983051 -285.40520513 101.67177986 -277.13671739 101.68363417 C-263.72037955 101.7006263 -250.30516062 101.65087711 -236.88916016 101.55883789 C-223.8617553 101.46960824 -210.83483946 101.41200939 -197.80712891 101.39672852 C-197.00326734 101.39577466 -196.19940576 101.3948208 -195.37118475 101.39383804 C-191.33819228 101.38924693 -187.30519948 101.38527534 -183.27220607 101.3816117 C-149.8475026 101.35044756 -116.42405103 101.21083616 -83 101 C-82.86571405 100.31413346 -82.73142811 99.62826693 -82.59307289 98.92161655 C-82.32640595 97.57143893 -82.32640595 97.57143893 -82.05435181 96.19398499 C-81.87881586 95.30186845 -81.70327991 94.40975191 -81.5224247 93.49060154 C-80.93646129 90.69708628 -80.17059525 88.01770345 -79.2734375 85.30859375 C-78.9640625 84.34373047 -78.6546875 83.37886719 -78.3359375 82.38476562 C-77.69340768 80.41407966 -77.04492942 78.44532357 -76.390625 76.47851562 C-74.45341884 70.39422316 -73.64411045 65.38624022 -74 59 C-76.64 59 -79.28 59 -82 59 C-81.69349173 55.22865439 -81.37876767 51.45803873 -81.0625 47.6875 C-80.97548828 46.61564453 -80.88847656 45.54378906 -80.79882812 44.43945312 C-80.71181641 43.41142578 -80.62480469 42.38339844 -80.53515625 41.32421875 C-80.456604 40.37635498 -80.37805176 39.42849121 -80.29711914 38.4519043 C-80 36 -80 36 -79 33 C-77.69426025 33.02416992 -76.38852051 33.04833984 -75.04321289 33.07324219 C-70.3695575 33.07027634 -65.9161207 32.56938467 -61.30859375 31.828125 C-60.519048 31.70443542 -59.72950226 31.58074585 -58.91603088 31.45330811 C-57.26089854 31.19129894 -55.60635095 30.92557055 -53.95239258 30.65625 C-51.44235901 30.25078491 -48.92960146 29.86711721 -46.41601562 29.484375 C-44.7966627 29.22528174 -43.17751406 28.96490777 -41.55859375 28.703125 C-40.81878769 28.59252747 -40.07898163 28.48192993 -39.3167572 28.36798096 C-34.65467371 27.58242238 -30.88344696 26.17627888 -26.72872925 23.91468811 C-24.46744257 22.71821849 -22.11712874 21.97412621 -19.6875 21.1875 C-15.9980829 19.729813 -15.19418709 19.30948568 -13 15.8125 C-12.24939731 12.95082725 -11.63240473 10.14662322 -11.0625 7.25 C-10.46401664 4.3938233 -10.17078583 3.20128329 -8.25 0.9375 C-5.21803591 -0.32581837 -3.26005966 -0.46572281 0 0 Z M-55 39 C-58.78746435 44.88534887 -59.50014401 52.14275223 -60 59 C-57.39741676 59.83857688 -54.79314353 60.67103344 -52.1875 61.5 C-51.08051758 61.85771484 -51.08051758 61.85771484 -49.95117188 62.22265625 C-46.86744804 63.19940136 -44.25504191 64 -41 64 C-40.67 64.66 -40.34 65.32 -40 66 C-38.85602518 61.64125819 -37.71682533 57.28130705 -36.58203125 52.92016602 C-36.19532135 51.43675073 -35.80730913 49.95367432 -35.41796875 48.47094727 C-34.85854804 46.33958289 -34.30382301 44.20704354 -33.75 42.07421875 C-33.57500977 41.41161545 -33.40001953 40.74901215 -33.21972656 40.06632996 C-32.50088942 37.28185301 -32 34.8909461 -32 32 C-39.57162879 32 -48.87451274 34.58146426 -55 39 Z M-72 36 C-72 37.98 -72 39.96 -72 42 C-71.67 42 -71.34 42 -71 42 C-71 40.02 -71 38.04 -71 36 C-71.33 36 -71.66 36 -72 36 Z M-73 47 C-73 48.65 -73 50.3 -73 52 C-72.67 52 -72.34 52 -72 52 C-72 50.35 -72 48.7 -72 47 C-72.33 47 -72.66 47 -73 47 Z M-62 71 C-70.969368 85.58422083 -70.969368 85.58422083 -76 101 C-70.64887036 101.83837814 -66.59693409 101.99306831 -61.890625 99.06640625 C-54.46935559 93.4220189 -54.46935559 93.4220189 -51.15234375 85.28515625 C-50.83529426 80.52941396 -50.92960737 75.76323433 -51 71 C-54.63 71 -58.26 71 -62 71 Z M-384.5 93.375 C-385.09425781 93.88289063 -385.68851562 94.39078125 -386.30078125 94.9140625 C-388.59905933 96.88549743 -390.85820491 98.85820491 -393 101 C-383.43 101 -373.86 101 -364 101 C-369.77836788 94.24157129 -369.77836788 94.24157129 -376 88 C-379.53575599 88 -381.92855694 91.14381296 -384.5 93.375 Z M-213 174 C-214.70805274 176.68408288 -215 177.76169533 -215 181 C-208.07 181 -201.14 181 -194 181 C-195.33954912 174.37817284 -195.33954912 174.37817284 -198.1875 171.5625 C-204.0314441 168.31586439 -208.44109492 169.31084049 -213 174 Z M-267.8125 175.3125 C-271.8440245 180.26551581 -271.51224693 184.78114249 -271 191 C-269.39701349 194.74030185 -268.40262302 195.73158465 -265 198 C-261.45975858 198.07767129 -261.45975858 198.07767129 -258 197 C-255.04094847 193.23455567 -254.56801802 190.22342784 -254.5625 185.5 C-254.54316406 184.3965625 -254.52382812 183.293125 -254.50390625 182.15625 C-255.10316253 178.34365886 -256.29917162 176.71061399 -259 174 C-263.19810601 172.39221472 -264.29301725 172.41870307 -267.8125 175.3125 Z M-154 178 C-155.92809904 183.78429711 -155.77786652 189.94926099 -153.625 195.625 C-152.21853932 198.09308156 -152.21853932 198.09308156 -150 199 C-147.0842309 199.41702122 -147.0842309 199.41702122 -144 199 C-141.69724444 197.1329009 -140.32176129 195.64352259 -139 193 C-138.85148156 191.06640414 -138.77869167 189.12657903 -138.75 187.1875 C-138.72421875 186.14980469 -138.6984375 185.11210937 -138.671875 184.04296875 C-139.04322427 180.59914633 -139.96636877 178.77403095 -142 176 C-147.04771181 172.68743913 -149.78197238 174.11497456 -154 178 Z M-215 193 C-213.91412259 198.42938703 -213.23604785 199.68483212 -209 203 C-205.59862751 204.07080245 -203.34681105 204.56707834 -199.99609375 203.15625 C-198.28153609 202.1863992 -196.63386833 201.10036031 -195 200 C-195 199.34 -195 198.68 -195 198 C-194.34 198.33 -193.68 198.66 -193 199 C-190.45384991 199.23172827 -187.92603775 199.41894529 -185.375 199.5625 C-184.66859375 199.60568359 -183.9621875 199.64886719 -183.234375 199.69335938 C-181.48981463 199.79944751 -179.74493303 199.90022889 -178 200 C-178.66 197.69 -179.32 195.38 -180 193 C-191.55 193 -203.1 193 -215 193 Z " fill="#FFFFFF" transform="translate(488,18)"/>
<path d="M0 0 C1.5169043 -0.01740234 1.5169043 -0.01740234 3.06445312 -0.03515625 C10.87317043 -0.00498735 18.93175224 0.8082986 25.375 5.625 C31.43907957 12.13279271 32.05803079 19.77523059 32.21875 28.2734375 C32.23715942 29.02662262 32.25556885 29.77980774 32.27453613 30.55581665 C32.33300012 32.9538022 32.38591149 35.35185731 32.4375 37.75 C32.50564507 40.90377939 32.57936529 44.05736046 32.65625 47.2109375 C32.66982544 47.92470551 32.68340088 48.63847351 32.6973877 49.37387085 C32.80544247 53.79532894 33.23461042 58.01893431 33.9375 62.375 C30.16692453 62.49097653 26.39680607 62.56217396 22.625 62.625 C21.55314453 62.65851563 20.48128906 62.69203125 19.37695312 62.7265625 C17.83491211 62.74589844 17.83491211 62.74589844 16.26171875 62.765625 C15.31385498 62.78657227 14.36599121 62.80751953 13.3894043 62.82910156 C10.9375 62.375 10.9375 62.375 9.10473633 60.35058594 C8.71954834 59.69864258 8.33436035 59.04669922 7.9375 58.375 C7.39480469 58.65214844 6.85210937 58.92929688 6.29296875 59.21484375 C5.21982422 59.75818359 5.21982422 59.75818359 4.125 60.3125 C3.06345703 60.85197266 3.06345703 60.85197266 1.98046875 61.40234375 C-2.80696089 63.68163626 -7.05484848 63.62805891 -12.25 63.6875 C-13.07564453 63.71650391 -13.90128906 63.74550781 -14.75195312 63.77539062 C-21.56318052 63.84516679 -26.84668876 62.32282697 -31.9375 57.65625 C-35.64448391 51.78685881 -36.07234332 46.19384683 -35.0625 39.375 C-32.60959323 33.75375532 -28.41812215 31.01917419 -23.0625 28.375 C-18.88978932 27.01591449 -14.66086756 26.05681925 -10.375 25.125 C-9.26060547 24.86976563 -8.14621094 24.61453125 -6.99804688 24.3515625 C-2.36445412 23.29658033 2.27499441 22.29402352 6.9375 21.375 C6.4425 19.395 6.4425 19.395 5.9375 17.375 C2.5553267 17.07947029 -0.68898034 16.93903746 -4.0625 17.375 C-6.89661155 19.708492 -6.89661155 19.708492 -9.0625 22.375 C-13.87848693 24.08569806 -18.91906377 23.032508 -23.875 22.4375 C-24.75865234 22.33759766 -25.64230469 22.23769531 -26.55273438 22.13476562 C-28.72353813 21.88835006 -30.89327637 21.63489965 -33.0625 21.375 C-34.43170665 17.26738005 -33.22759573 15.44905551 -31.41015625 11.66015625 C-28.1905073 6.20075151 -24.13202891 3.44567973 -18.0703125 1.734375 C-12.00218881 0.17266259 -6.24024443 -0.07186462 0 0 Z M0.125 37.1875 C-0.93332031 37.52394531 -1.99164063 37.86039063 -3.08203125 38.20703125 C-5.86382537 39.29714454 -7.7953916 40.45921106 -10.0625 42.375 C-9.68345792 45.66575996 -9.68345792 45.66575996 -8.0625 48.375 C-2.94054863 48.9816518 -2.94054863 48.9816518 1.765625 47.328125 C3.92637625 45.54498077 5.67623094 43.89753812 6.9375 41.375 C6.977492 39.37539988 6.98096799 37.37452758 6.9375 35.375 C4.65712628 35.375 2.2583826 36.49872956 0.125 37.1875 Z " fill="#FFFFFF" transform="translate(452.0625,170.625)"/>
<path d="M0 0 C3.6875 1.5 3.6875 1.5 6 3 C5.67422369 10.16707877 2.34556372 15.76927124 -1 22 C-1.60328125 21.88140625 -2.2065625 21.7628125 -2.828125 21.640625 C-7.81656799 20.75166243 -7.81656799 20.75166243 -12.4375 22.375 C-17.03381235 30.09680475 -16.41152756 39.86794555 -16.625 48.5625 C-16.66367188 49.85736328 -16.70234375 51.15222656 -16.7421875 52.48632812 C-16.83579656 55.6573349 -16.91895669 58.82864719 -17 62 C-25.25 62 -33.5 62 -42 62 C-42 41.87 -42 21.74 -42 1 C-34.41 1 -26.82 1 -19 1 C-18.67 2.32 -18.34 3.64 -18 5 C-17.21625 4.360625 -16.4325 3.72125 -15.625 3.0625 C-10.67812242 -0.82433239 -6.13620495 -0.5178232 0 0 Z " fill="#FFFFFF" transform="translate(153,171)"/>
<path d="M0 0 C2.44681161 2.28369084 2.93698958 3.62981379 3.5 6.9375 C2.83493345 11.01103263 1.11683475 12.40263771 -2 15 C-5.12761008 16.56380504 -8.44602516 16.14320695 -11.875 16.125 C-12.59558594 16.12886719 -13.31617188 16.13273437 -14.05859375 16.13671875 C-19.63825091 16.12644314 -19.63825091 16.12644314 -22.08984375 15.26953125 C-25.40979374 14.80107205 -27.94992516 16.89006923 -30.6875 18.5625 C-31.62505127 19.10970703 -31.62505127 19.10970703 -32.58154297 19.66796875 C-36.10931596 21.75202364 -39.36858489 24.00839431 -42.625 26.5 C-48.4801071 30.48622605 -54.99264524 29.65340804 -61.7355957 28.55395508 C-71.70694096 27.13527806 -80.25786913 29.67873423 -89.7409668 32.45947266 C-92.45111474 33.25399136 -95.1684383 34.01815196 -97.88867188 34.77734375 C-99.63330038 35.27171902 -101.37745955 35.76775422 -103.12109375 36.265625 C-103.9242955 36.49388977 -104.72749725 36.72215454 -105.55503845 36.95733643 C-109.97899251 38.25946521 -113.87765641 39.90096879 -118 42 C-119.794375 42.2475 -119.794375 42.2475 -121.625 42.5 C-124.91861588 42.71415378 -124.91861588 42.71415378 -126.8125 44.359375 C-129.51859742 46.38894806 -132.2325589 47.50474362 -135.375 48.75 C-136.47585937 49.19859375 -137.57671875 49.6471875 -138.7109375 50.109375 C-142.32670013 51.08846512 -144.43120463 51.09017957 -148 50 C-150 47 -150 47 -149.75 44.4375 C-149 42 -149 42 -147 40 C-138.92466181 37.71198751 -130.33218801 37.46222357 -122 37 C-121.69707031 36.27296875 -121.39414063 35.5459375 -121.08203125 34.796875 C-120.20142876 32.68342903 -119.31704904 30.57155449 -118.4296875 28.4609375 C-117.48991543 26.18597015 -116.57749902 23.8994735 -115.6953125 21.6015625 C-115.07269531 20.00441406 -115.07269531 20.00441406 -114.4375 18.375 C-114.06496094 17.39273438 -113.69242188 16.41046875 -113.30859375 15.3984375 C-111.74545366 12.53345835 -111.07544446 11.99964696 -108 11 C-84.68766097 5.71716226 -84.68766097 5.71716226 -78.375 9.625 C-76.50543663 12.85424581 -76.19145268 14.32478491 -77 18 C-79.06827449 20.38602615 -81.43293914 22.17786911 -84 24 C-84.86625 24.639375 -85.7325 25.27875 -86.625 25.9375 C-89 27 -89 27 -91.6875 26.9375 C-94 26 -94 26 -95.3125 23.9375 C-95.539375 23.298125 -95.76625 22.65875 -96 22 C-100.08926187 21.1731904 -100.08926187 21.1731904 -104 22 C-106.88052941 25.37587278 -108.9589963 29.07106788 -111 33 C-103.84630947 32.08769541 -96.97385923 30.34397923 -90.01977539 28.46386719 C-88.54587585 28.07065342 -87.06889061 27.68883228 -85.58911133 27.31835938 C-83.43298056 26.77771478 -81.28915357 26.20161219 -79.14453125 25.6171875 C-77.23184448 25.11614502 -77.23184448 25.11614502 -75.28051758 24.60498047 C-70.88474519 22.45436592 -70.03404698 20.3685818 -68 16 C-66.72125 16.165 -65.4425 16.33 -64.125 16.5 C-52.24223432 17.74010171 -42.21238239 16.48835612 -31.5 10.6875 C-28 9 -28 9 -25 9.25 C-24.34 9.4975 -23.68 9.745 -23 10 C-22.90485107 9.38560059 -22.80970215 8.77120117 -22.71166992 8.13818359 C-21.6140908 4.84055136 -19.48465661 4.2389618 -16.51757812 2.70703125 C-15.78990234 2.34996094 -15.06222656 1.99289063 -14.3125 1.625 C-13.60416016 1.24472656 -12.89582031 0.86445312 -12.16601562 0.47265625 C-7.48227224 -1.87137783 -4.91891473 -2.52972758 0 0 Z " fill="#FFFFFF" transform="translate(180,61)"/>
<path d="M0 0 C8.25 0 16.5 0 25 0 C25 19.8 25 39.6 25 60 C16.75 60 8.5 60 0 60 C0 40.2 0 20.4 0 0 Z " fill="#FFFFFF" transform="translate(383,172)"/>
<path d="M0 0 C8.25 0 16.5 0 25 0 C25 19.8 25 39.6 25 60 C16.75 60 8.5 60 0 60 C0 40.2 0 20.4 0 0 Z " fill="#FFFFFF" transform="translate(160,171)"/>
<path d="M0 0 C2.375 1.5625 2.375 1.5625 4 4 C4.78720048 8.95936303 4.78720048 8.95936303 4 12 C1.4375 15.0625 1.4375 15.0625 -2 17 C-5.95419205 17.06817573 -8.11622522 16.5665223 -11.4375 14.4375 C-13.65456515 10.97887837 -13.82963533 8.00032082 -13 4 C-9.343307 -0.91762162 -5.77832349 -1.5330246 0 0 Z " fill="#FFFFFF" transform="translate(116,58)"/>
<path d="M0 0 C3.57659141 1.02188326 5.01390877 1.76114134 7.0625 4.875 C7.00163078 8.34454545 6.6899029 10.79447278 4.9375 13.8125 C1.91478899 15.52536957 -0.54335305 15.23227863 -3.9375 14.875 C-6.83604954 13.42572523 -7.68709072 12.50937018 -8.875 9.5 C-8.95644966 6.07911409 -7.98183188 4.57643855 -5.9375 1.875 C-2.9375 -0.125 -2.9375 -0.125 0 0 Z " fill="#FFFFFF" transform="translate(425.9375,34.125)"/>
</svg>
